<?xml version="1.0" encoding="utf-8"?>
<!-- Generator: Adobe Illustrator 26.5.0, SVG Export Plug-In . SVG Version: 6.00 Build 0)  -->
<svg version="1.1" id="Layer_1" xmlns="http://www.w3.org/2000/svg" xmlns:xlink="http://www.w3.org/1999/xlink" x="0px" y="0px"
	 viewBox="0 0 156.84 25.64" style="enable-background:new 0 0 156.84 25.64;" xml:space="preserve">
<style type="text/css">
	.st0{fill:#606161;}
	.st1{fill:#ED1C24;}
</style>
<g>
	<g>
		<g>
			<path class="st0" d="M110.07,22.77c0-1.23,0.77-2.01,2.18-2.01c1.42,0,2.19,0.78,2.19,2.01v2.78h-0.56v-1.58h-3.27v1.58h-0.54
				V22.77z M113.88,23.49v-0.72c0-0.95-0.56-1.53-1.64-1.53c-1.07,0-1.63,0.59-1.63,1.53v0.72H113.88z"/>
			<path class="st0" d="M115.36,20.85h1.81c1.75,0,2.68,0.94,2.68,2.34s-0.94,2.34-2.68,2.34h-1.81V20.85z M117.17,25.07
				c1.43,0,2.13-0.75,2.13-1.87s-0.7-1.87-2.13-1.87h-1.25v3.74H117.17z"/>
			<path class="st0" d="M120.04,20.85h0.62l1.7,4.09l1.7-4.09h0.6l-2.02,4.69h-0.6L120.04,20.85z"/>
			<path class="st0" d="M125.38,20.85h3.71v0.47h-3.16v1.6h2.71v0.47h-2.71v1.67h3.16v0.47h-3.71V20.85z"/>
			<path class="st0" d="M129.96,20.85h2.24c1.19,0,1.72,0.62,1.72,1.45c0,0.77-0.45,1.29-1.28,1.43l1.46,1.81h-0.67l-1.37-1.78
				h-1.54v1.78h-0.56V20.85z M132.21,23.29c0.84,0,1.15-0.43,1.15-0.99s-0.3-0.98-1.15-0.98h-1.69v1.96H132.21z"/>
			<path class="st0" d="M136.16,21.33h-1.72v-0.47h3.99v0.47h-1.72v4.22h-0.56V21.33z"/>
			<path class="st0" d="M139.18,20.85h0.56v4.69h-0.56V20.85z"/>
			<path class="st0" d="M140.54,24.22h0.55c0.02,0.6,0.5,0.94,1.3,0.94s1.3-0.37,1.3-0.94c0-0.62-0.64-0.72-1.33-0.82
				c-0.82-0.11-1.7-0.25-1.7-1.25c0-0.83,0.7-1.4,1.74-1.4c1.02,0,1.7,0.54,1.73,1.36h-0.53c-0.03-0.54-0.47-0.88-1.2-0.88
				c-0.74,0-1.2,0.36-1.2,0.91c0,0.6,0.63,0.7,1.32,0.8c0.82,0.12,1.71,0.26,1.71,1.26c0,0.88-0.73,1.43-1.84,1.43
				C141.29,25.64,140.56,25.1,140.54,24.22z"/>
			<path class="st0" d="M145.05,20.85h0.56v4.69h-0.56V20.85z"/>
			<path class="st0" d="M146.55,22.7c0-1.18,0.76-1.94,2.13-1.94c1.36,0,2.12,0.75,2.12,1.94v2.85h-0.56V22.7
				c0-0.9-0.54-1.46-1.56-1.46c-1.03,0-1.57,0.56-1.57,1.46v2.85h-0.56V22.7z"/>
			<path class="st0" d="M151.46,23.2c0-1.41,1.11-2.44,2.69-2.44c1.22,0,2.18,0.62,2.54,1.56h-0.61c-0.33-0.66-1.03-1.09-1.93-1.09
				c-1.26,0-2.13,0.83-2.13,1.96c0,1.13,0.87,1.97,2.13,1.97c1.1,0,1.9-0.57,2.1-1.51h-2.41v-0.47h3v0.24
				c-0.12,1.28-1.19,2.21-2.68,2.21C152.57,25.64,151.46,24.6,151.46,23.2z"/>
		</g>
	</g>
	<path class="st1" d="M1.24,0h12.39c1.16,0,2.08,0.35,2.78,1.05c0.7,0.7,1.05,1.62,1.05,2.78v11.33c0,1.16-0.35,2.08-1.05,2.78
		c-0.7,0.7-1.62,1.05-2.78,1.05H6.1v-1.73c0-0.36,0.11-0.66,0.34-0.89s0.51-0.35,0.85-0.35h5.67c0.31,0,0.55-0.11,0.72-0.34
		c0.17-0.22,0.26-0.54,0.26-0.95V4.26c0-0.41-0.09-0.72-0.26-0.94c-0.17-0.22-0.41-0.33-0.72-0.33H3.52v15.99H0V1.26
		C0,0.9,0.12,0.6,0.35,0.36S0.88,0,1.24,0z"/>
	<path class="st1" d="M21.79,0h14.46v2.99H24.07v13.02h12.18v2.98h-15.7V1.26c0-0.36,0.12-0.66,0.35-0.9C21.13,0.12,21.43,0,21.79,0
		z M27.9,8.01h7.65v2.98h-8.9V9.26c0-0.36,0.12-0.66,0.35-0.89C27.24,8.13,27.54,8.01,27.9,8.01z"/>
	<path class="st1" d="M55.55,0c0.36,0,0.66,0.12,0.89,0.36c0.23,0.24,0.35,0.54,0.35,0.9v1.73H43.83c-0.31,0-0.55,0.11-0.71,0.33
		c-0.17,0.22-0.25,0.53-0.25,0.94V6.3c0,0.41,0.08,0.72,0.25,0.94c0.17,0.22,0.41,0.33,0.71,0.33h9.15c1.15,0,2.07,0.35,2.77,1.05
		c0.7,0.7,1.05,1.62,1.05,2.78v3.76c0,1.16-0.35,2.08-1.05,2.78c-0.7,0.7-1.62,1.05-2.77,1.05H39.33v-1.73
		c0-0.36,0.11-0.66,0.34-0.89s0.52-0.35,0.86-0.35h11.76c0.31,0,0.55-0.11,0.72-0.34c0.17-0.22,0.26-0.54,0.26-0.95v-2.9
		c0-0.41-0.09-0.72-0.26-0.94s-0.41-0.33-0.72-0.33h-9.14c-1.16,0-2.08-0.35-2.78-1.05c-0.7-0.7-1.05-1.63-1.05-2.77v-2.9
		c0-1.16,0.35-2.08,1.05-2.78C41.07,0.35,42,0,43.15,0H55.55z"/>
	<path class="st1" d="M61.12,0h2.28v3.99h-3.52V1.26c0-0.36,0.12-0.66,0.35-0.9C60.46,0.12,60.76,0,61.12,0z M59.88,5.59h3.52v13.4
		h-3.52V5.59z"/>
	<path class="st1" d="M82.93,2.99H70.98c-0.31,0-0.55,0.11-0.71,0.33c-0.17,0.22-0.25,0.53-0.25,0.94v10.46
		c0,0.41,0.08,0.72,0.25,0.95c0.17,0.23,0.41,0.34,0.71,0.34h9.67v-3.34c0-0.41-0.09-0.72-0.26-0.94c-0.17-0.22-0.41-0.33-0.72-0.33
		H74c-0.34,0-0.62-0.12-0.85-0.36c-0.23-0.24-0.34-0.54-0.34-0.9V8.41h7.53c1.16,0,2.08,0.35,2.78,1.05c0.7,0.7,1.05,1.63,1.05,2.77
		v6.75H70.31c-1.16,0-2.08-0.35-2.78-1.05c-0.7-0.7-1.05-1.62-1.05-2.78V3.83c0-1.16,0.35-2.08,1.05-2.78
		C68.23,0.35,69.15,0,70.31,0h13.86v1.73c0,0.36-0.12,0.66-0.35,0.9C83.59,2.87,83.29,2.99,82.93,2.99z"/>
	<path class="st1" d="M88.37,0h2.28l12.67,14.46V1.26c0-0.36,0.12-0.66,0.35-0.9S104.2,0,104.56,0h2.28v18.99h-3.52L90.65,4.53
		v14.46h-3.52V1.26c0-0.36,0.12-0.66,0.35-0.9C87.71,0.12,88.01,0,88.37,0z"/>
	<path class="st0" d="M111.43,0h2.28v18.99h-3.52V1.26c0-0.36,0.12-0.66,0.35-0.9C110.77,0.12,111.07,0,111.43,0z M117.54,0h6.29
		c1.16,0,2.08,0.35,2.78,1.05c0.7,0.7,1.05,1.62,1.05,2.78v4.63c0,1.16-0.35,2.08-1.05,2.78c-0.7,0.7-1.62,1.05-2.78,1.05h-7.53
		v-1.73c0-0.36,0.11-0.66,0.34-0.89c0.22-0.23,0.51-0.35,0.85-0.35h5.67c0.31,0,0.55-0.11,0.72-0.33c0.17-0.22,0.26-0.53,0.26-0.94
		V4.26c0-0.41-0.09-0.72-0.26-0.94c-0.17-0.22-0.41-0.33-0.72-0.33h-6.86V1.26c0-0.36,0.12-0.66,0.35-0.9
		C116.88,0.12,117.18,0,117.54,0z"/>
	<path class="st0" d="M131.98,0h2.28v3.99h-3.52V1.26c0-0.36,0.12-0.66,0.35-0.9C131.32,0.12,131.62,0,131.98,0z M130.74,5.59h3.52
		v13.4h-3.52V5.59z"/>
	<path class="st0" d="M137.86,0h2.53l6.02,7.37l5.26-6.42c0.24-0.29,0.53-0.52,0.88-0.7c0.35-0.17,0.7-0.26,1.07-0.26h3.18
		l-8.22,10.04l7.32,8.95h-4.38l-5.14-6.26l-5.12,6.26h-4.3l7.27-8.92l-6.98-8.51c-0.26-0.31-0.31-0.64-0.16-1.01
		C137.23,0.18,137.49,0,137.86,0z"/>
</g>
</svg>
