<?xml version="1.0" encoding="utf-8"?>
<!-- Generator: Adobe Illustrator 26.5.0, SVG Export Plug-In . SVG Version: 6.00 Build 0)  -->
<svg version="1.1" id="Layer_1" xmlns="http://www.w3.org/2000/svg" xmlns:xlink="http://www.w3.org/1999/xlink" x="0px" y="0px"
	 viewBox="0 0 42.65 42.64" style="enable-background:new 0 0 42.65 42.64;" xml:space="preserve">
<style type="text/css">
	.st0{fill:#606161;}
</style>
<g>
	<g>
		<g>
			<path class="st0" d="M35.83,40.95c-1.11,0-2.21,0-3.32,0c-0.03,0-0.06,0.01-0.11,0.01c0,0.56,0,1.11,0,1.68
				c-0.57,0-1.11,0-1.68,0c-0.02-0.18-0.01-0.37-0.01-0.55c0-0.18,0-0.36,0-0.54c0-0.19,0-0.37,0-0.59c-0.2-0.01-0.39,0-0.58-0.01
				c-0.19,0-0.37,0-0.56,0c-0.19,0-0.39,0-0.58,0l0.01,0c0-0.57,0-1.13,0-1.72c1.15,0,2.27,0,3.4,0c0-0.58,0-1.13,0-1.7
				c-0.39,0-0.76,0-1.13,0c-0.38,0-0.75,0-1.13,0c-0.37,0-0.75,0-1.13,0c0-0.21,0-0.4,0-0.58c0-0.19,0-0.38,0-0.56
				c0-0.18,0.01-0.37-0.01-0.56c-0.09,0-0.16,0-0.22,0c-0.99,0-1.98,0-2.96,0c-0.07,0-0.15-0.01-0.22-0.01l0.01,0.01
				c0-0.07,0-0.15,0-0.22c0-0.99,0-1.98,0-2.96c0-0.07,0-0.14,0.01-0.23c0.58,0,1.13,0,1.68,0c0.04-0.26,0.03-1.54-0.02-1.69
				c-0.55,0-1.1,0-1.68,0c0-0.26,0-0.5,0-0.74c0-0.24,0-0.49,0-0.73c0-0.24,0-0.49,0-0.73c0-0.24,0-0.48,0-0.71
				c0-0.24,0-0.49,0-0.73c0-0.24,0-0.49,0-0.73c0-0.24,0-0.48,0-0.73c-0.21,0-0.4,0-0.59,0c-0.18,0-0.36,0-0.54,0
				c-0.18,0-0.37,0.01-0.55,0c0-1.15,0-2.27,0-3.41c0.56,0,1.12,0,1.69,0c0-0.59,0-1.15,0-1.72l-0.01,0c0.57,0,1.13,0,1.72,0
				c0,0.58,0,1.14,0,1.71c0.58,0.01,1.14,0.01,1.7,0.02l0-0.01c0,0.56,0,1.13,0,1.69c-0.56,0-1.12,0.01-1.68,0.01
				c-0.04,0.27-0.03,1.57,0.02,1.72c0.55,0,1.11,0,1.66,0c0,0.56,0,1.12,0.01,1.68c0.29,0.04,3.26,0.03,3.41-0.02
				c0-0.55,0-1.1,0-1.67c0.57,0,1.13,0,1.7,0c0-1.14,0-2.27,0-3.4c0.58,0,1.14,0,1.71,0c0,0.57,0,1.12,0,1.67
				c0.31,0.04,3.27,0.03,3.41-0.02c0-0.27,0-0.55,0-0.82c0-0.28,0-0.56,0-0.84c0.58,0,1.14,0,1.69,0l-0.01,0
				c0,0.48,0.01,0.96,0.01,1.44c0,0.07,0,0.15,0,0.23c0.19,0.04,0.38,0.02,0.56,0.02c0.19,0,0.38,0,0.56,0c0.19,0,0.37,0,0.57,0
				c0,1.14,0,2.26,0,3.41c-0.28,0.01-0.56,0.01-0.85,0.01c-0.29,0-0.57,0-0.86,0c0-0.55,0-1.1,0-1.65c0-0.01-0.01-0.02-0.02-0.04
				c-0.55,0-1.1,0-1.68,0c0,0.57-0.01,1.12,0.01,1.68c0.58,0,1.14,0,1.69,0c0,1.05,0,2.11,0,3.16c0,0.09-0.01,0.17-0.01,0.26
				c0,0,0.01,0,0.01,0c-0.56,0-1.12,0-1.7,0c0-0.57,0-1.12,0-1.7c-0.58,0-1.14,0-1.71,0c0-0.21,0-0.4,0-0.58c0-0.19,0-0.38,0-0.56
				c0-0.19,0-0.38,0-0.56c0-0.19,0-0.39,0-0.58c0-0.19,0-0.38,0-0.56c0-0.18,0.01-0.37-0.01-0.55c-0.5-0.03-1.55-0.02-1.68,0.02
				c0,1.69,0,3.38,0,5.09c0.57,0,1.12,0,1.67,0c0.04,0.27,0.03,1.55-0.02,1.68c-0.18,0-0.37,0-0.56,0c-0.18,0-0.36,0-0.54,0
				c-0.18,0-0.37-0.01-0.55,0c0,0.58,0,1.13,0,1.71c0.2,0,0.38,0,0.57,0c0.19,0,0.38,0,0.56,0c0.18,0,0.37-0.01,0.56,0.01
				c0,0.07,0,0.11,0,0.16c0,1.04,0,2.08,0,3.11c0,0.05-0.01,0.1-0.01,0.15l0.01-0.01c-0.56,0-1.13,0-1.69,0.01
				c0-0.57-0.01-1.14-0.01-1.71c-0.58,0-1.13,0-1.7,0c0,0.57,0,1.13,0,1.71c0.58,0,1.15,0,1.71,0c0,0.02-0.01,0.04-0.01,0.06
				C35.83,38.71,35.83,39.83,35.83,40.95L35.83,40.95z M29.02,34.1c1.71,0,3.39,0,5.08,0c0.04-0.31,0.02-4.96-0.01-5.08
				c-1.69,0-3.37,0-5.06,0C29.02,30.72,29.02,32.4,29.02,34.1z"/>
			<path class="st0" d="M17.07,27.28c-0.37,0-0.75,0.01-1.12,0.01c-0.21,0-0.41-0.01-0.62-0.01l0.01,0.01c0-0.56,0-1.12,0-1.7
				c-0.09,0-0.16,0-0.24,0c-1.18,0-2.36,0-3.54,0c-0.44,0-0.89,0-1.33,0l0,0c0.02-0.57-0.01-1.14,0.01-1.72c0.3,0,0.58,0,0.86,0
				c0.28,0,0.55,0.01,0.84-0.01c0-0.11,0-0.19,0-0.27c0-0.47,0.01-0.95,0.01-1.42l0,0c0.56,0,1.13,0,1.69,0c0,0.55,0,1.1,0,1.65
				c0,0.01,0.01,0.02,0.02,0.04c0.55,0,1.1,0,1.68,0c0-0.57,0.01-1.12-0.01-1.68c-0.58,0-1.14,0-1.69,0c0-0.57,0-1.13,0-1.72
				c-0.09,0-0.16,0-0.23,0c-0.49,0-0.98-0.01-1.46-0.01l0,0c0-0.56,0-1.13,0-1.69l0,0c0.07,0,0.14-0.01,0.21-0.01
				c0.42,0,0.85,0,1.27,0c0.07,0,0.13-0.01,0.19-0.01c0-0.58,0-1.13,0-1.7c-0.08,0-0.15,0-0.21,0c-0.49,0-0.97-0.01-1.46-0.01
				l0.01,0c0-0.56,0-1.13,0-1.69l0,0c0.07,0,0.14-0.01,0.21-0.01c0.98,0,1.96,0,2.94,0c0.07,0,0.14,0,0.23,0
				c0.01-0.2,0-0.39,0.01-0.58c0-0.19,0-0.37,0-0.56c0-0.19,0-0.39,0-0.58l0,0c0.57,0,1.13,0,1.72,0c0-0.09,0-0.16,0-0.23
				c0-1.55,0-3.1,0-4.65c0-0.08,0.01-0.16,0.02-0.24l0,0c0.03,0.01,0.06,0.02,0.09,0.02c0.53,0,1.06,0,1.59,0l0-0.01
				c0,0.07,0.01,0.15,0.01,0.22c0,0.99,0,1.99,0,2.98c0,0.07,0,0.13,0,0.22c0.59,0,1.16,0,1.72,0l0,0c0,1.12,0,2.23,0,3.35
				c0,0.02,0.01,0.05,0.01,0.07c-0.02,0-0.05-0.01-0.07-0.01c-1.08,0-2.16,0-3.24,0c-0.03,0-0.07,0.01-0.1,0.02
				c0,0.57,0,1.12,0,1.68c-0.57,0.02-1.14-0.01-1.71,0.01c0,0.58,0,1.13,0,1.69c0.57,0,1.13,0,1.71,0c0-0.58,0-1.15,0-1.71
				c0.04,0,0.09,0.01,0.13,0.01c1.05,0,2.1,0,3.14,0c0.05,0,0.1-0.01,0.15-0.01c0,0.56-0.01,1.11-0.01,1.67
				c0,0.02,0.02,0.03,0.03,0.06c0.07,0,0.15,0,0.22,0c0.48,0,0.96,0.01,1.44,0.01l0,0c0,0.03,0.01,0.06,0.01,0.09
				c0,1.06,0,2.11,0,3.17c0,0.04-0.01,0.08-0.01,0.12c-0.2,0.04-3.25,0.03-3.4-0.01c0-0.18,0-0.37,0-0.56c0-0.19,0-0.38,0-0.56
				c0-0.18,0.02-0.37-0.01-0.55c-0.38-0.04-1.55-0.02-1.68,0.02c0,1.12,0,2.25,0,3.39c1.7,0,3.39,0,5.09,0c0,0.58,0,1.14,0,1.71
				c-0.57,0-1.12,0-1.69,0c0,0.57,0,1.13,0,1.67c-0.03,0.01-0.04,0.02-0.05,0.02c-0.56,0-1.11,0-1.67,0l0.01,0.01
				c0-0.56,0-1.12,0-1.7c-0.58,0-1.13,0-1.69,0C17.06,26.18,17.06,26.73,17.07,27.28L17.07,27.28z"/>
			<path class="st0" d="M0,11.93C0,7.95,0,3.98,0,0c3.98,0,7.96,0,11.94,0c0,3.98,0,7.95,0,11.93C7.96,11.93,3.98,11.93,0,11.93z
				 M10.23,1.7c-2.85,0-5.68,0-8.51,0C1.68,2,1.7,10.09,1.73,10.22c2.83,0,5.66,0,8.5,0C10.23,7.38,10.23,4.55,10.23,1.7z"/>
			<path class="st0" d="M11.94,42.63c-3.98,0-7.95,0-11.94,0c0-3.97,0-7.93,0-11.9c0.14-0.04,11.71-0.05,11.94-0.01
				C11.94,34.69,11.94,38.65,11.94,42.63z M10.23,32.41c-2.85,0-5.68,0-8.51,0C1.68,32.7,1.7,40.8,1.73,40.93c2.83,0,5.66,0,8.5,0
				C10.23,38.08,10.23,35.25,10.23,32.41z"/>
			<path class="st0" d="M42.64,11.93c-3.97,0-7.93,0-11.89,0c-0.01-0.01-0.01-0.01-0.01-0.01c0,0-0.01-0.01-0.01-0.01
				c0-0.02-0.01-0.05-0.01-0.07c0-3.92,0-7.84,0-11.77c0-0.02,0.01-0.03,0.02-0.06c3.96,0,7.93,0,11.9,0
				C42.64,3.97,42.64,7.94,42.64,11.93z M40.93,10.23c0-2.84,0-5.68,0-8.53c-2.84,0-5.67,0-8.51,0c0,2.84,0,5.68,0,8.53
				C35.26,10.23,38.09,10.23,40.93,10.23z"/>
			<path class="st0" d="M20.48,6.83c0-0.05-0.01-0.1-0.01-0.15c0-1.04,0-2.08,0-3.11c0-0.04,0-0.09,0-0.13
				c0.13-0.04,3.12-0.06,3.41-0.02c0,0.55,0,1.1,0,1.68c0.57,0,1.13,0,1.71,0c0,0.59,0,1.15,0,1.72c0,0.56,0,1.13,0,1.69
				c0,0.57,0,1.14,0,1.71c0,0.56,0,1.13,0,1.69c0,0.57,0,1.13,0,1.72c0.59,0,1.16,0,1.72,0l0,0c0,0.33,0,0.66,0,0.99
				c0,1.3,0,2.6,0,3.9c0,0.07,0,0.15,0,0.24c-0.57,0-1.13,0-1.71,0c-0.01,0.58-0.01,1.14-0.02,1.7l0.01,0c-0.56,0-1.12,0-1.7,0
				c0-0.57,0-1.12,0-1.69c-0.59,0-1.15,0-1.72,0l0,0c0-0.33,0-0.66,0-0.99c0-0.25-0.01-0.5-0.01-0.75c0.56,0,1.11,0,1.67,0.01
				c0.02,0,0.03-0.02,0.04-0.02c0-1.13,0-2.25,0-3.38c-0.57-0.01-1.13,0.01-1.7-0.01c0-0.09,0-0.15,0-0.21c0-0.43,0-0.86,0-1.29
				c0-0.07-0.01-0.13-0.02-0.2c0.05,0.01,0.1,0.02,0.15,0.02c0.48,0,0.96,0,1.44,0c0.04,0,0.08-0.01,0.14-0.01c0-0.56,0-1.11,0-1.68
				c-0.57,0-1.13,0-1.69,0c0,0.07-0.01,0.13-0.01,0.19c0,0.43,0,0.86,0,1.29c0,0.06-0.01,0.12-0.02,0.18
				c-0.02,0.01-0.03,0.02-0.05,0.02c-0.54,0-1.08,0-1.63-0.01l0,0c0-0.04-0.01-0.09-0.01-0.13c0-1.05,0-2.09,0-3.14
				c0-0.05,0.01-0.1,0.01-0.15l-0.01,0.01c0.56,0,1.12,0,1.7,0c0-0.58,0-1.13,0-1.69C21.59,6.83,21.03,6.83,20.48,6.83L20.48,6.83z"
				/>
			<path class="st0" d="M40.93,15.35c0,0.55,0,1.1,0.01,1.64c0,0.01-0.01,0.02-0.01,0.03c-0.07,0.01-0.13,0.02-0.2,0.02
				c-0.99,0-1.99,0-2.98,0c-0.07,0-0.13,0-0.19,0c-0.04,0.27-0.03,1.57,0.01,1.7c1.12,0,2.24,0,3.37,0c0.01-0.04,0.01-0.07,0.01-0.1
				c0-0.5,0-1,0-1.5c0-0.04-0.01-0.08-0.02-0.13c0.07,0.01,0.13,0.02,0.2,0.02c0.44,0,0.89,0,1.33,0c0.06,0,0.12,0.01,0.19,0.01
				c0,1.7,0,3.39,0,5.11c-0.57,0.03-1.14,0-1.71,0.02l0.01,0c0-0.57,0-1.13,0-1.73c-1.71,0-3.41,0-5.12,0c0-1.15,0-2.27,0-3.4
				c-0.58,0-1.13,0-1.71,0c0,0.24,0,0.46,0,0.68c0,0.23,0,0.45,0,0.68c0,0.23,0,0.46,0,0.69c0,0.22,0,0.45,0,0.68
				c0,0.22,0.01,0.44-0.01,0.67c-0.58,0-1.14,0-1.69,0l0.01,0c0-0.49-0.01-0.98-0.01-1.48c0-0.07,0-0.13,0-0.22
				c-0.57,0-1.11,0-1.65,0c-0.02-0.03-0.03-0.04-0.03-0.05c0-0.56,0-1.12,0-1.68l-0.01,0.01c0.19,0,0.37,0,0.56,0
				c0.19,0,0.37,0,0.56,0c0.18,0,0.37,0.02,0.56-0.01c0-0.1,0-0.18,0-0.26c0-0.47,0.01-0.95,0.01-1.42l0,0.01
				c0.06,0,0.12-0.01,0.19-0.01c2.72,0,5.43,0,8.15,0C40.81,15.34,40.87,15.35,40.93,15.35L40.93,15.35z"/>
			<path class="st0" d="M0,18.76c0-1.72,0-3.42,0-5.12c1.13,0,2.25,0,3.4,0c0.02,0.56,0,1.12,0.01,1.69c0.57,0,1.13,0,1.7,0
				c0-0.56,0-1.12,0-1.67c0.15-0.04,3.2-0.05,3.41-0.01c0,0.55,0,1.11,0,1.68c-0.56,0.01-1.12,0-1.7,0.01c0,1.14,0,2.26,0,3.4
				c-0.57,0-1.13,0-1.7,0c0,0.57,0,1.13,0,1.67c-0.15,0.04-1.44,0.06-1.72,0.02c0-0.55,0-1.1,0-1.68C2.27,18.76,1.15,18.76,0,18.76z
				"/>
			<path class="st0" d="M40.93,32.38c0,0.42,0.01,0.85,0.01,1.27c0,0.14,0,0.28,0,0.45c0.58,0,1.14,0,1.7,0c0,2.85,0,5.68,0,8.52
				c-0.57,0-1.12,0-1.7,0c0-0.56,0-1.11,0-1.67c-0.04-0.01-0.05-0.02-0.07-0.02c-1.12,0-2.24,0-3.36,0l0.01,0c0-1.14,0-2.28,0-3.42
				l-0.01,0.01c0.07,0,0.14-0.01,0.21-0.01c0.44,0,0.87,0,1.31,0c0.07,0,0.13-0.01,0.19-0.01c0.01-0.03,0.01-0.04,0.01-0.04
				c0-0.01,0-0.02,0-0.04c0-1.63,0-3.26,0-4.89c0-0.02,0-0.04,0-0.06c0-0.01,0-0.01,0-0.02c0-0.01,0-0.02,0.01-0.04
				c0-0.01,0-0.01,0.01-0.02c0,0,0.01-0.01,0.03-0.03C39.83,32.39,40.38,32.39,40.93,32.38L40.93,32.38z"/>
			<path class="st0" d="M3.4,23.87c1.11,0,2.23,0,3.34,0c0.02,0,0.04,0,0.08-0.01c0.01-0.18,0-0.37,0.01-0.55c0-0.18,0-0.36,0-0.54
				c0-0.19,0-0.37,0-0.56c0.02-0.01,0.04-0.03,0.06-0.03c0.56,0,1.11,0,1.67,0.01l-0.01-0.01c0,1.1,0,2.2,0,3.3
				c0,0.03,0.01,0.07,0.02,0.11c0.08,0,0.16,0,0.23,0c0.48,0,0.96,0.01,1.44,0.01l0,0c0,0.56,0.01,1.12,0.01,1.7
				c0.09,0,0.15,0,0.22,0c0.96,0,1.92,0,2.89,0c0.66,0,1.32,0,1.99,0l-0.01-0.01c0,0.05,0.01,0.1,0.01,0.15c0,1.04,0,2.08,0,3.12
				c0,0.04,0,0.09,0,0.13c-0.14,0.04-1.46,0.05-1.7,0.01c0-0.55,0-1.1,0-1.67c-1.71,0-3.39,0-5.1,0c0-0.58,0-1.14,0-1.71
				c-0.08,0-0.14-0.01-0.21-0.01c-0.44,0-0.89,0-1.33,0c-0.07,0-0.14-0.01-0.2-0.02l0,0c0.01-0.04,0.02-0.07,0.02-0.11
				c0-0.49,0-0.98,0-1.46c0-0.03-0.01-0.06-0.01-0.09c-0.03-0.01-0.04-0.02-0.06-0.02c-1.12,0-2.24,0-3.36,0l0,0
				C3.4,25.02,3.4,24.44,3.4,23.87L3.4,23.87z"/>
			<path class="st0" d="M20.48,32.39c-0.57,0-1.13,0-1.72,0c0-0.56,0-1.11,0-1.68c-0.3,0-0.57,0-0.85,0c-0.27,0-0.55,0-0.83,0
				c-0.01-0.04-0.02-0.08-0.02-0.11c0-1.08,0-2.16,0-3.24c0-0.02,0.01-0.05,0.01-0.07l-0.01,0.01c0.56,0,1.13,0,1.69,0l-0.01-0.01
				c0,0.07,0.01,0.14,0.01,0.21c0,0.44,0,0.88,0,1.31c0,0.07,0.01,0.13,0.01,0.19c1.15,0,2.27,0,3.41,0c0-0.2,0-0.39,0-0.57
				c0-0.19,0-0.38,0-0.56c0-0.18-0.01-0.37,0.01-0.55c0.58,0,1.13,0,1.69,0c0,2.27,0,4.53,0,6.8c-0.57,0.01-1.13,0-1.7,0.01
				c0,0.1,0,0.17,0,0.25c0,0.48-0.01,0.96-0.01,1.44l0-0.01c-0.55,0-1.11,0-1.68,0c-0.01-0.03-0.02-0.07-0.02-0.1
				C20.47,34.6,20.48,33.49,20.48,32.39c0.54,0,1.09,0,1.64,0c0.01,0,0.02-0.01,0.04-0.02c0-0.55,0-1.1,0-1.65
				c-0.57,0-1.12,0-1.67,0c-0.01,0.02-0.02,0.03-0.02,0.05C20.48,31.31,20.48,31.85,20.48,32.39z"/>
			<path class="st0" d="M17.06,37.54c0.56,0,1.11,0,1.67,0c0.04,0.14,0.04,3.19,0.01,3.4c-0.55,0-1.1,0-1.68,0c0,0.57,0,1.13,0,1.69
				c-1.14,0-2.27,0-3.39,0c-0.04-0.14-0.04-3.19,0-3.4c1.12,0,2.24,0,3.39,0c0-0.08,0-0.14,0-0.2c0-0.43,0-0.86,0-1.29
				C17.06,37.67,17.06,37.6,17.06,37.54L17.06,37.54z"/>
			<path class="st0" d="M27.31,40.95c-0.57,0-1.13,0-1.72,0c0,0.57,0,1.12,0,1.69c-1.71,0-3.4,0-5.11,0c0-0.56,0-1.11,0-1.68
				c1.12,0,2.25,0,3.39,0c0-0.08,0.01-0.15,0.01-0.21c0-0.44,0-0.88,0-1.31c0-0.07,0.01-0.14,0.01-0.21l-0.01,0.01
				c0.56,0,1.12,0,1.69,0c0-0.58,0-1.13,0-1.69l-0.01,0.01c0.43-0.03,1.58-0.02,1.72,0.03c0,0.07,0,0.14,0,0.22
				C27.31,38.84,27.31,39.89,27.31,40.95L27.31,40.95z"/>
			<path class="st0" d="M8.55,22.18c0-0.06-0.01-0.12-0.01-0.19c0-1.58,0-3.16,0-4.75c0-0.06,0-0.12,0-0.2
				c1.15,0,2.29-0.01,3.43-0.01l-0.01,0c0,0.58,0,1.15,0,1.73l0,0c-0.19,0-0.39,0-0.58,0c-0.19,0-0.37,0-0.56,0
				c-0.19,0-0.38-0.02-0.57,0.02c0,0.57,0,1.12,0,1.68c0.58,0,1.14,0,1.71,0l0,0c0,0.58,0,1.15,0,1.73l0,0
				C10.82,22.18,9.68,22.18,8.55,22.18L8.55,22.18z"/>
			<path class="st0" d="M23.9,39.22c-0.06,0-0.11,0.01-0.17,0.01c-1.02,0-2.05,0-3.07,0c-0.05,0-0.11,0-0.18-0.01
				c0-0.56,0-1.11,0-1.69c0.55,0,1.11,0,1.68,0c0.03-0.21,0.01-0.4,0.01-0.59c0-0.19,0-0.37,0-0.56c0-0.19,0-0.39,0-0.58l0,0.01
				c1.14,0,2.28,0,3.42,0l-0.01-0.01c0,0.12,0.01,0.24,0.01,0.35c0,0.46-0.01,0.92-0.01,1.38l0.01-0.01c-0.56,0-1.12,0-1.69,0
				C23.89,38.1,23.89,38.66,23.9,39.22L23.9,39.22z"/>
			<path class="st0" d="M17.07,37.53c-0.67,0-1.35,0-2.02,0c-0.4,0-0.8,0-1.2,0c-0.06,0-0.12-0.01-0.19-0.01c0-1.14,0-2.26,0-3.39
				c1.13,0,2.26,0,3.41,0c0,0.07,0,0.14,0,0.21c0,0.99,0,1.99,0,2.98C17.06,37.39,17.06,37.46,17.07,37.53
				C17.06,37.54,17.07,37.53,17.07,37.53z"/>
			<path class="st0" d="M18.74,1.67c0.01-0.06,0.02-0.12,0.02-0.18c0-0.43,0-0.86,0-1.29c0-0.06,0-0.12,0-0.19c2.28,0,4.54,0,6.8,0
				c0.04,0.12,0.05,1.43,0.01,1.68c-0.05,0-0.11,0.01-0.16,0.01c-2.16,0-4.32,0-6.49,0C18.86,1.69,18.8,1.68,18.74,1.67
				C18.74,1.67,18.74,1.67,18.74,1.67z"/>
			<path class="st0" d="M15.33,1.69c1.11,0,2.22,0,3.34,0c0.02,0,0.05-0.01,0.07-0.02c0,0,0-0.01,0-0.01
				c0.01,0.05,0.02,0.1,0.02,0.15c0,1.06,0,2.11,0,3.17c0,0.03,0,0.06-0.01,0.12c-0.56,0.01-1.12,0-1.69,0c0-0.57,0-1.13,0-1.69
				c-0.57,0-1.13,0-1.7,0C15.33,2.83,15.35,2.25,15.33,1.69L15.33,1.69z"/>
			<path class="st0" d="M29,22.18c0-0.57,0-1.13,0-1.72c0.09,0,0.16,0,0.23,0c0.99,0,1.98,0,2.96,0c0.07,0,0.15,0,0.22,0l-0.01,0
				c0,0.57,0,1.13,0,1.72c-0.1,0-0.17,0-0.25,0C31.11,22.17,30.05,22.18,29,22.18L29,22.18z"/>
			<path class="st0" d="M3.4,25.59c0,0.05,0.01,0.1,0.01,0.15c0,1.02,0,2.05,0,3.07c0,0.06,0,0.11-0.01,0.18c-0.56,0-1.11,0-1.68,0
				c0-1.13,0-2.26,0-3.38c0.01-0.01,0.03-0.02,0.04-0.02C2.3,25.6,2.85,25.6,3.4,25.59L3.4,25.59z"/>
			<path class="st0" d="M28.99,8.52c-0.56,0-1.11,0-1.66,0c-0.04-0.13-0.05-3.17-0.01-3.4c0.55,0,1.1,0,1.67,0
				C28.99,6.25,28.99,7.37,28.99,8.52z"/>
			<path class="st0" d="M15.34,13.62c-0.56,0-1.11,0-1.67,0c-0.04-0.13-0.05-3.14-0.01-3.37c0.55,0,1.1,0,1.67,0
				c0,0.04,0.01,0.08,0.01,0.11c0,1.06,0,2.11,0,3.17C15.34,13.56,15.34,13.59,15.34,13.62L15.34,13.62z"/>
			<path class="st0" d="M27.31,13.62c0-0.04-0.01-0.09-0.01-0.13c0-1.03,0-2.06,0-3.09c0-0.04,0-0.09,0-0.13
				c0.14-0.04,1.46-0.05,1.69-0.01c0,1.11,0,2.23,0,3.34c-0.02,0.01-0.03,0.02-0.04,0.02C28.41,13.62,27.86,13.62,27.31,13.62
				C27.31,13.62,27.31,13.62,27.31,13.62z"/>
			<path class="st0" d="M40.94,15.35c0-0.57,0-1.13,0-1.71c0.58,0,1.14,0,1.71,0c0,0.56,0,1.12,0,1.7
				C42.07,15.34,41.5,15.34,40.94,15.35L40.94,15.35z"/>
			<path class="st0" d="M11.96,15.35c-0.57,0-1.13,0-1.71,0c0-0.58,0-1.14,0-1.71c0.56,0,1.12,0,1.7,0
				C11.95,14.21,11.95,14.78,11.96,15.35L11.96,15.35z"/>
			<path class="st0" d="M17.08,8.5c-0.04,0.01-0.09,0.02-0.13,0.02c-0.49,0-0.99,0-1.48,0c-0.04,0-0.07-0.01-0.12-0.01
				c0-0.56,0-1.11,0-1.68c0.57,0,1.13,0,1.69,0c0,0.07,0.01,0.13,0.01,0.19c0,0.43,0,0.86,0,1.29C17.06,8.38,17.07,8.44,17.08,8.5
				C17.08,8.5,17.08,8.5,17.08,8.5z"/>
			<path class="st0" d="M18.75,8.52c0-0.56,0-1.11,0-1.66c0.03-0.02,0.05-0.03,0.06-0.03c0.56,0,1.11,0,1.67,0.01l-0.01-0.01
				c0,0.56,0,1.13,0,1.69l0.01-0.01C19.9,8.51,19.33,8.51,18.75,8.52L18.75,8.52z"/>
			<path class="st0" d="M30.73,15.35c0-0.42-0.01-0.85-0.01-1.27c0-0.14,0-0.29,0-0.44c0.56,0,1.11,0,1.68,0
				c0.03,0.57,0,1.14,0.01,1.71l0-0.01C31.85,15.35,31.29,15.35,30.73,15.35L30.73,15.35z"/>
			<path class="st0" d="M6.8,27.27c0.01,0.04,0.02,0.09,0.02,0.13c0,0.49,0,0.99,0,1.48c0,0.04-0.01,0.07-0.01,0.12
				c-0.56,0-1.11,0-1.68,0c0-0.57,0-1.13,0-1.69c0.07,0,0.13-0.01,0.19-0.01c0.43,0,0.86,0,1.29,0C6.68,27.29,6.74,27.28,6.8,27.27
				C6.8,27.27,6.8,27.27,6.8,27.27z"/>
			<path class="st0" d="M30.73,17.03c-0.42,0-0.85,0.01-1.27,0.01c-0.14,0-0.29,0-0.44,0c0-0.57,0-1.12,0-1.67
				c0.01-0.01,0.02-0.02,0.03-0.02c0.56,0,1.12,0,1.68,0l-0.01-0.01C30.72,15.91,30.72,16.48,30.73,17.03L30.73,17.03z"/>
			<path class="st0" d="M40.93,30.7c0.57,0,1.13,0,1.71,0c0,0.57,0,1.12,0,1.67c-0.02,0.01-0.03,0.02-0.05,0.02
				c-0.56,0-1.11,0-1.67-0.01l0.01,0.01C40.94,31.83,40.94,31.26,40.93,30.7L40.93,30.7z"/>
			<path class="st0" d="M3.4,23.87c-0.56,0-1.11,0-1.69,0c-0.01-0.56,0-1.12-0.01-1.68c0.57,0,1.13,0,1.67,0
				c0.01,0.02,0.02,0.03,0.02,0.04C3.4,22.77,3.4,23.32,3.4,23.87C3.4,23.87,3.4,23.87,3.4,23.87z"/>
			<path class="st0" d="M15.34,1.68c-0.56,0-1.11,0-1.69,0c-0.01-0.56,0-1.12-0.01-1.68c0.57,0,1.13,0,1.67,0
				c0.01,0.02,0.02,0.03,0.02,0.04C15.34,0.59,15.33,1.14,15.34,1.68C15.33,1.69,15.34,1.68,15.34,1.68z"/>
			<path class="st0" d="M29,40.95c0,0.56,0,1.11,0,1.69c-0.56,0.01-1.11,0-1.66,0c-0.02-0.03-0.03-0.04-0.03-0.05
				c0-0.55,0-1.1,0-1.65l-0.01,0C27.87,40.95,28.44,40.95,29,40.95L29,40.95z"/>
			<path class="st0" d="M37.52,40.95c0,0.56,0,1.11,0,1.69c-0.56,0.01-1.11,0-1.66,0c-0.02-0.03-0.03-0.04-0.03-0.05
				c0-0.55,0-1.1,0-1.65l-0.01,0C36.39,40.95,36.96,40.95,37.52,40.95L37.52,40.95z"/>
			<path class="st0" d="M29,25.6c0-0.42,0.01-0.85,0.01-1.27c0-0.16-0.01-0.31-0.01-0.47c0.5,0,1,0.01,1.5,0.01
				c0.07,0,0.13,0,0.21,0c0,0.57,0,1.13,0,1.7c-0.06,0-0.13,0.01-0.19,0.01c-0.44,0-0.87,0-1.31,0C29.13,25.59,29.06,25.6,29,25.6z"
				/>
			<path class="st0" d="M32.4,30.73c0,0.55,0,1.09,0,1.63c-0.14,0.04-1.42,0.05-1.67,0.01c0-0.55,0-1.09,0-1.64
				C30.86,30.7,32.17,30.69,32.4,30.73z"/>
			<path class="st0" d="M22.17,17.04c-0.56,0-1.13,0-1.69,0c0-0.56,0-1.13,0-1.69c0.56,0,1.12,0,1.69,0
				C22.17,15.92,22.17,16.48,22.17,17.04z"/>
			<path class="st0" d="M8.52,8.51c-1.71,0-3.4,0-5.1,0c0-1.7,0-3.39,0-5.08c0.14-0.04,4.84-0.05,5.1-0.01
				C8.52,5.11,8.52,6.8,8.52,8.51z"/>
			<path class="st0" d="M8.53,34.12c0,1.7,0,3.39,0,5.09c-1.71,0-3.4,0-5.11,0c0-1.7,0-3.39,0-5.09
				C5.12,34.12,6.82,34.12,8.53,34.12z"/>
			<path class="st0" d="M34.12,3.42c1.71,0,3.4,0,5.11,0c0,1.7,0,3.39,0,5.09c-1.71,0-3.4,0-5.11,0
				C34.12,6.81,34.12,5.12,34.12,3.42z"/>
		</g>
	</g>
</g>
</svg>
